M48
; DRILL file {KiCad (5.1.0)-1} date 07/10/2019 23:17:42
; FORMAT={-:-/ absolute / metric / decimal}
; #@! TF.CreationDate,2019-10-07T23:17:42+02:00
; #@! TF.GenerationSoftware,Kicad,Pcbnew,(5.1.0)-1
; #@! TF.FileFunction,NonPlated,1,2,NPTH
FMAT,2
METRIC
T1C2.000
%
G90
G05
T1
G00X100.0Y-90.6
M15
G01X101.0Y-90.6
M16
G05
G00X100.0Y-99.4
M15
G01X101.0Y-99.4
M16
G05
G00X96.35Y-109.0
M15
G01X96.35Y-110.0
M16
G05
G00X105.15Y-109.0
M15
G01X105.15Y-110.0
M16
G05
G00X96.6Y-66.0
M15
G01X96.6Y-65.0
M16
G05
G00X105.4Y-66.0
M15
G01X105.4Y-65.0
M16
G05
G00X120.5Y-90.6
M15
G01X121.5Y-90.6
M16
G05
G00X120.5Y-99.4
M15
G01X121.5Y-99.4
M16
G05
G00X58.7Y-65.6
M15
G01X59.7Y-65.6
M16
G05
G00X58.7Y-74.4
M15
G01X59.7Y-74.4
M16
G05
G00X142.5Y-70.6
M15
G01X141.5Y-70.6
M16
G05
G00X142.5Y-79.4
M15
G01X141.5Y-79.4
M16
G05
G00X58.75Y-115.6
M15
G01X59.75Y-115.6
M16
G05
G00X58.75Y-124.4
M15
G01X59.75Y-124.4
M16
G05
G00X100.0Y-75.6
M15
G01X101.0Y-75.6
M16
G05
G00X100.0Y-84.4
M15
G01X101.0Y-84.4
M16
G05
G00X120.5Y-70.6
M15
G01X121.5Y-70.6
M16
G05
G00X120.5Y-79.4
M15
G01X121.5Y-79.4
M16
G05
G00X58.75Y-100.6
M15
G01X59.75Y-100.6
M16
G05
G00X58.75Y-109.4
M15
G01X59.75Y-109.4
M16
G05
G00X80.75Y-65.6
M15
G01X79.75Y-65.6
M16
G05
G00X80.75Y-74.4
M15
G01X79.75Y-74.4
M16
G05
T0
M30
