M48
; DRILL file {KiCad (5.1.0)-1} date 07/10/2019 23:17:42
; FORMAT={-:-/ absolute / metric / decimal}
; #@! TF.CreationDate,2019-10-07T23:17:42+02:00
; #@! TF.GenerationSoftware,Kicad,Pcbnew,(5.1.0)-1
; #@! TF.FileFunction,Plated,1,2,PTH
FMAT,2
METRIC
T1C0.400
T2C0.500
T3C0.600
T4C0.800
T5C1.000
T6C1.016
T7C1.100
T8C2.200
T9C2.500
%
G90
G05
T1
X50.525Y-110.0
X51.5Y-51.75
X59.606Y-95.606
X60.419Y-96.419
X61.75Y-78.5
X63.0Y-51.75
X63.95Y-78.132
X64.75Y-98.75
X65.75Y-96.025
X67.25Y-94.7
X67.75Y-136.5
X68.45Y-109.75
X68.5Y-67.0
X68.75Y-94.0
X68.75Y-120.75
X69.45Y-83.0
X71.0Y-94.0
X71.0Y-94.85
X71.0Y-109.75
X71.0Y-120.75
X72.0Y-83.0
X72.75Y-87.75
X74.775Y-80.025
X75.25Y-66.75
X75.25Y-68.25
X76.5Y-54.25
X88.0Y-52.0
X88.0Y-60.5
X91.0Y-51.0
X92.0Y-116.25
X92.5Y-55.0
X92.5Y-133.25
X92.75Y-117.0
X92.75Y-125.0
X92.75Y-127.5
X93.0Y-52.0
X93.25Y-115.0
X93.5Y-106.25
X94.057Y-127.882
X94.5Y-72.25
X94.75Y-119.0
X95.0Y-112.75
X95.5Y-127.25
X95.75Y-84.5
X95.75Y-117.5
X96.0Y-129.0
X96.25Y-115.5
X96.25Y-116.35
X96.533Y-113.47
X97.457Y-121.518
X98.75Y-110.0
X98.78Y-119.47
X99.025Y-113.25
X99.025Y-123.65
X99.25Y-127.25
X99.25Y-132.75
X100.05Y-131.0
X100.375Y-113.25
X100.75Y-121.5
X100.75Y-122.75
X101.0Y-65.0
X101.0Y-116.75
X101.75Y-110.0
X104.0Y-107.0
X104.5Y-126.5
X104.629Y-112.062
X106.0Y-135.0
X106.0Y-138.0
X106.75Y-69.0
X106.75Y-107.25
X106.891Y-112.141
X107.5Y-113.5
X107.5Y-123.75
X107.756Y-54.756
X108.25Y-69.0
X108.25Y-84.5
X108.25Y-116.0
X109.25Y-117.25
X109.5Y-132.5
X110.0Y-69.0
X113.25Y-110.0
X113.25Y-120.0
X113.25Y-125.0
X113.5Y-148.5
X117.368Y-100.632
X117.5Y-75.25
X118.507Y-99.693
X119.0Y-93.75
X119.852Y-75.248
X120.493Y-95.807
X121.282Y-94.968
X121.5Y-66.0
X121.5Y-114.25
X121.5Y-115.75
X121.5Y-130.0
X121.5Y-140.0
X121.812Y-75.312
X123.75Y-75.25
X125.75Y-75.25
X126.75Y-109.0
X127.25Y-100.0
X127.72Y-108.47
X128.0Y-63.5
X128.47Y-107.72
X128.5Y-106.5
X128.78Y-110.78
X129.25Y-90.0
X129.25Y-95.0
X129.45Y-107.75
X129.5Y-110.251
X129.5Y-112.5
X131.0Y-63.5
X131.0Y-120.25
X131.75Y-107.75
X132.25Y-77.0
X132.381Y-95.916
X132.75Y-110.0
X133.0Y-100.0
X133.112Y-94.387
X133.35Y-101.5
X133.75Y-90.0
X134.0Y-63.5
X134.575Y-101.5
X134.75Y-113.25
X134.75Y-114.75
X134.75Y-118.75
X137.0Y-116.75
X137.25Y-82.5
X138.75Y-113.25
X139.25Y-115.225
X139.25Y-116.725
X140.5Y-119.25
X141.5Y-73.5
X141.5Y-77.0
X141.5Y-140.0
X143.5Y-110.75
X143.75Y-115.0
X145.0Y-82.5
X148.5Y-120.0
X148.5Y-125.0
X148.5Y-126.0
X148.75Y-110.0
X149.0Y-102.5
X84.85Y-140.0
X85.333Y-138.833
X85.333Y-141.167
X86.5Y-138.35
X86.5Y-141.65
X87.667Y-138.833
X87.667Y-141.167
X88.15Y-140.0
X114.6Y-55.0
X115.083Y-53.833
X115.083Y-56.167
X116.25Y-53.35
X116.25Y-56.65
X117.417Y-53.833
X117.417Y-56.167
X117.9Y-55.0
X85.1Y-112.5
X85.583Y-111.333
X85.583Y-113.667
X86.75Y-110.85
X86.75Y-114.15
X87.917Y-111.333
X87.917Y-113.667
X88.4Y-112.5
X144.017Y-54.833
X144.5Y-53.667
X144.5Y-56.0
X145.667Y-53.183
X145.667Y-56.483
X146.833Y-53.667
X146.833Y-56.0
X147.317Y-54.833
T2
X84.375Y-55.5
X84.924Y-54.174
X84.924Y-56.826
X86.25Y-53.625
X86.25Y-57.375
X87.576Y-54.174
X87.576Y-56.826
X88.125Y-55.5
X51.875Y-55.5
X52.424Y-54.174
X52.424Y-56.826
X53.75Y-53.625
X53.75Y-57.375
X55.076Y-54.174
X55.076Y-56.826
X55.625Y-55.5
T4
X68.25Y-102.5
X68.25Y-105.04
X68.25Y-107.58
X118.92Y-64.0
X121.46Y-64.0
X124.0Y-64.0
X71.75Y-67.5
X71.75Y-70.04
X71.75Y-72.58
X68.25Y-117.0
X68.25Y-119.54
X68.25Y-122.08
X126.42Y-85.0
X128.96Y-85.0
X131.5Y-85.0
T5
X98.5Y-72.5
X101.0Y-72.5
X103.5Y-72.5
X67.5Y-96.5
X72.5Y-96.5
X114.0Y-92.5
X114.0Y-95.0
X114.0Y-97.5
X52.2Y-67.5
X52.2Y-70.0
X52.2Y-72.5
X149.0Y-72.5
X149.0Y-75.0
X149.0Y-77.5
X52.25Y-117.5
X52.25Y-120.0
X52.25Y-122.5
X93.5Y-77.5
X93.5Y-80.0
X93.5Y-82.5
X114.0Y-72.5
X114.0Y-75.0
X114.0Y-77.5
X52.25Y-102.5
X52.25Y-105.0
X52.25Y-107.5
X93.5Y-92.5
X93.5Y-95.0
X93.5Y-97.5
X87.25Y-67.5
X87.25Y-70.0
X87.25Y-72.5
X98.25Y-102.5
X100.75Y-102.5
X103.25Y-102.5
T6
X125.84Y-53.71
X125.84Y-56.25
X128.38Y-53.71
X128.38Y-56.25
X130.92Y-53.71
X130.92Y-56.25
X133.46Y-53.71
X133.46Y-56.25
X136.0Y-53.71
X136.0Y-56.25
X64.59Y-54.21
X64.59Y-56.75
X67.13Y-54.21
X67.13Y-56.75
X69.67Y-54.21
X69.67Y-56.75
X72.21Y-54.21
X72.21Y-56.75
X74.75Y-54.21
X74.75Y-56.75
X96.09Y-53.71
X96.09Y-56.25
X98.63Y-53.71
X98.63Y-56.25
X101.17Y-53.71
X101.17Y-56.25
X103.71Y-53.71
X103.71Y-56.25
X106.25Y-53.71
X106.25Y-56.25
T7
X102.75Y-134.25
X102.75Y-138.75
X109.25Y-134.25
X109.25Y-138.75
T8
X116.25Y-55.0
X86.75Y-112.5
X145.667Y-54.833
X86.5Y-140.0
T9
X86.25Y-55.5
X53.75Y-55.5
T2
G00X74.83Y-120.8
M15
G01X74.83Y-119.2
M16
G05
G00X64.67Y-144.2
M15
G01X64.67Y-145.8
M16
G05
G00X126.42Y-139.2
M15
G01X126.42Y-140.8
M16
G05
G00X96.08Y-137.3
M15
G01X96.08Y-135.7
M16
G05
G00X74.83Y-105.8
M15
G01X74.83Y-104.2
M16
G05
G00X126.42Y-129.2
M15
G01X126.42Y-130.8
M16
G05
G00X96.08Y-146.3
M15
G01X96.08Y-144.7
M16
G05
G00X64.67Y-134.2
M15
G01X64.67Y-135.8
M16
G05
G00X74.83Y-145.8
M15
G01X74.83Y-144.2
M16
G05
G00X136.58Y-130.8
M15
G01X136.58Y-129.2
M16
G05
G00X136.58Y-140.8
M15
G01X136.58Y-139.2
M16
G05
T3
G00X83.13Y-105.7
M15
G01X83.13Y-104.3
M16
G05
G00X86.23Y-105.4
M15
G01X86.23Y-104.6
M16
G05
G00X115.02Y-129.6
M15
G01X115.02Y-130.4
M16
G05
G00X118.12Y-129.3
M15
G01X118.12Y-130.7
M16
G05
G00X104.38Y-146.2
M15
G01X104.38Y-144.8
M16
G05
G00X107.48Y-145.9
M15
G01X107.48Y-145.1
M16
G05
G00X53.27Y-134.6
M15
G01X53.27Y-135.4
M16
G05
G00X56.37Y-134.3
M15
G01X56.37Y-135.7
M16
G05
G00X83.13Y-145.7
M15
G01X83.13Y-144.3
M16
G05
G00X86.23Y-145.4
M15
G01X86.23Y-144.6
M16
G05
G00X144.88Y-130.7
M15
G01X144.88Y-129.3
M16
G05
G00X147.98Y-130.4
M15
G01X147.98Y-129.6
M16
G05
G00X144.88Y-140.7
M15
G01X144.88Y-139.3
M16
G05
G00X147.98Y-140.4
M15
G01X147.98Y-139.6
M16
G05
G00X83.13Y-120.7
M15
G01X83.13Y-119.3
M16
G05
G00X86.23Y-120.4
M15
G01X86.23Y-119.6
M16
G05
G00X53.27Y-144.6
M15
G01X53.27Y-145.4
M16
G05
G00X56.37Y-144.3
M15
G01X56.37Y-145.7
M16
G05
G00X115.02Y-139.6
M15
G01X115.02Y-140.4
M16
G05
G00X118.12Y-139.3
M15
G01X118.12Y-140.7
M16
G05
G00X104.38Y-137.2
M15
G01X104.38Y-135.8
M16
G05
G00X107.48Y-136.9
M15
G01X107.48Y-136.1
M16
G05
T0
M30
