%TF.GenerationSoftware,KiCad,Pcbnew,(5.1.0)-1*%
%TF.CreationDate,2019-10-07T23:17:33+02:00*%
%TF.ProjectId,KicadJE_MoogVCF_1,4b696361-644a-4455-9f4d-6f6f67564346,rev?*%
%TF.SameCoordinates,Original*%
%TF.FileFunction,Paste,Top*%
%TF.FilePolarity,Positive*%
%FSLAX46Y46*%
G04 Gerber Fmt 4.6, Leading zero omitted, Abs format (unit mm)*
G04 Created by KiCad (PCBNEW (5.1.0)-1) date 2019-10-07 23:17:33*
%MOMM*%
%LPD*%
G04 APERTURE LIST*
%ADD10C,1.000000*%
%ADD11C,0.050000*%
%ADD12C,0.150000*%
%ADD13C,1.425000*%
%ADD14R,0.900000X1.200000*%
%ADD15C,0.975000*%
%ADD16C,1.150000*%
%ADD17R,1.900000X0.800000*%
G04 APERTURE END LIST*
D10*
X111000000Y-60000000D02*
X111000000Y-140000000D01*
X112000000Y-60000000D02*
X112000000Y-140000000D01*
X111000000Y-140000000D02*
X112000000Y-140000000D01*
X111000000Y-60000000D02*
X112000000Y-60000000D01*
X90000000Y-60000000D02*
X91000000Y-60000000D01*
X90000000Y-140000000D02*
X91000000Y-140000000D01*
X91000000Y-60000000D02*
X91000000Y-140000000D01*
X90000000Y-60000000D02*
X90000000Y-140000000D01*
D11*
X50000000Y-150000000D02*
X50000000Y-50000000D01*
X150000000Y-150000000D02*
X50000000Y-150000000D01*
X150000000Y-50000000D02*
X150000000Y-150000000D01*
X50000000Y-50000000D02*
X150000000Y-50000000D01*
D12*
G36*
X64749504Y-58626204D02*
G01*
X64773773Y-58629804D01*
X64797571Y-58635765D01*
X64820671Y-58644030D01*
X64842849Y-58654520D01*
X64863893Y-58667133D01*
X64883598Y-58681747D01*
X64901777Y-58698223D01*
X64918253Y-58716402D01*
X64932867Y-58736107D01*
X64945480Y-58757151D01*
X64955970Y-58779329D01*
X64964235Y-58802429D01*
X64970196Y-58826227D01*
X64973796Y-58850496D01*
X64975000Y-58875000D01*
X64975000Y-60125000D01*
X64973796Y-60149504D01*
X64970196Y-60173773D01*
X64964235Y-60197571D01*
X64955970Y-60220671D01*
X64945480Y-60242849D01*
X64932867Y-60263893D01*
X64918253Y-60283598D01*
X64901777Y-60301777D01*
X64883598Y-60318253D01*
X64863893Y-60332867D01*
X64842849Y-60345480D01*
X64820671Y-60355970D01*
X64797571Y-60364235D01*
X64773773Y-60370196D01*
X64749504Y-60373796D01*
X64725000Y-60375000D01*
X63800000Y-60375000D01*
X63775496Y-60373796D01*
X63751227Y-60370196D01*
X63727429Y-60364235D01*
X63704329Y-60355970D01*
X63682151Y-60345480D01*
X63661107Y-60332867D01*
X63641402Y-60318253D01*
X63623223Y-60301777D01*
X63606747Y-60283598D01*
X63592133Y-60263893D01*
X63579520Y-60242849D01*
X63569030Y-60220671D01*
X63560765Y-60197571D01*
X63554804Y-60173773D01*
X63551204Y-60149504D01*
X63550000Y-60125000D01*
X63550000Y-58875000D01*
X63551204Y-58850496D01*
X63554804Y-58826227D01*
X63560765Y-58802429D01*
X63569030Y-58779329D01*
X63579520Y-58757151D01*
X63592133Y-58736107D01*
X63606747Y-58716402D01*
X63623223Y-58698223D01*
X63641402Y-58681747D01*
X63661107Y-58667133D01*
X63682151Y-58654520D01*
X63704329Y-58644030D01*
X63727429Y-58635765D01*
X63751227Y-58629804D01*
X63775496Y-58626204D01*
X63800000Y-58625000D01*
X64725000Y-58625000D01*
X64749504Y-58626204D01*
X64749504Y-58626204D01*
G37*
D13*
X64262500Y-59500000D03*
D12*
G36*
X67724504Y-58626204D02*
G01*
X67748773Y-58629804D01*
X67772571Y-58635765D01*
X67795671Y-58644030D01*
X67817849Y-58654520D01*
X67838893Y-58667133D01*
X67858598Y-58681747D01*
X67876777Y-58698223D01*
X67893253Y-58716402D01*
X67907867Y-58736107D01*
X67920480Y-58757151D01*
X67930970Y-58779329D01*
X67939235Y-58802429D01*
X67945196Y-58826227D01*
X67948796Y-58850496D01*
X67950000Y-58875000D01*
X67950000Y-60125000D01*
X67948796Y-60149504D01*
X67945196Y-60173773D01*
X67939235Y-60197571D01*
X67930970Y-60220671D01*
X67920480Y-60242849D01*
X67907867Y-60263893D01*
X67893253Y-60283598D01*
X67876777Y-60301777D01*
X67858598Y-60318253D01*
X67838893Y-60332867D01*
X67817849Y-60345480D01*
X67795671Y-60355970D01*
X67772571Y-60364235D01*
X67748773Y-60370196D01*
X67724504Y-60373796D01*
X67700000Y-60375000D01*
X66775000Y-60375000D01*
X66750496Y-60373796D01*
X66726227Y-60370196D01*
X66702429Y-60364235D01*
X66679329Y-60355970D01*
X66657151Y-60345480D01*
X66636107Y-60332867D01*
X66616402Y-60318253D01*
X66598223Y-60301777D01*
X66581747Y-60283598D01*
X66567133Y-60263893D01*
X66554520Y-60242849D01*
X66544030Y-60220671D01*
X66535765Y-60197571D01*
X66529804Y-60173773D01*
X66526204Y-60149504D01*
X66525000Y-60125000D01*
X66525000Y-58875000D01*
X66526204Y-58850496D01*
X66529804Y-58826227D01*
X66535765Y-58802429D01*
X66544030Y-58779329D01*
X66554520Y-58757151D01*
X66567133Y-58736107D01*
X66581747Y-58716402D01*
X66598223Y-58698223D01*
X66616402Y-58681747D01*
X66636107Y-58667133D01*
X66657151Y-58654520D01*
X66679329Y-58644030D01*
X66702429Y-58635765D01*
X66726227Y-58629804D01*
X66750496Y-58626204D01*
X66775000Y-58625000D01*
X67700000Y-58625000D01*
X67724504Y-58626204D01*
X67724504Y-58626204D01*
G37*
D13*
X67237500Y-59500000D03*
D12*
G36*
X75237004Y-58626204D02*
G01*
X75261273Y-58629804D01*
X75285071Y-58635765D01*
X75308171Y-58644030D01*
X75330349Y-58654520D01*
X75351393Y-58667133D01*
X75371098Y-58681747D01*
X75389277Y-58698223D01*
X75405753Y-58716402D01*
X75420367Y-58736107D01*
X75432980Y-58757151D01*
X75443470Y-58779329D01*
X75451735Y-58802429D01*
X75457696Y-58826227D01*
X75461296Y-58850496D01*
X75462500Y-58875000D01*
X75462500Y-60125000D01*
X75461296Y-60149504D01*
X75457696Y-60173773D01*
X75451735Y-60197571D01*
X75443470Y-60220671D01*
X75432980Y-60242849D01*
X75420367Y-60263893D01*
X75405753Y-60283598D01*
X75389277Y-60301777D01*
X75371098Y-60318253D01*
X75351393Y-60332867D01*
X75330349Y-60345480D01*
X75308171Y-60355970D01*
X75285071Y-60364235D01*
X75261273Y-60370196D01*
X75237004Y-60373796D01*
X75212500Y-60375000D01*
X74287500Y-60375000D01*
X74262996Y-60373796D01*
X74238727Y-60370196D01*
X74214929Y-60364235D01*
X74191829Y-60355970D01*
X74169651Y-60345480D01*
X74148607Y-60332867D01*
X74128902Y-60318253D01*
X74110723Y-60301777D01*
X74094247Y-60283598D01*
X74079633Y-60263893D01*
X74067020Y-60242849D01*
X74056530Y-60220671D01*
X74048265Y-60197571D01*
X74042304Y-60173773D01*
X74038704Y-60149504D01*
X74037500Y-60125000D01*
X74037500Y-58875000D01*
X74038704Y-58850496D01*
X74042304Y-58826227D01*
X74048265Y-58802429D01*
X74056530Y-58779329D01*
X74067020Y-58757151D01*
X74079633Y-58736107D01*
X74094247Y-58716402D01*
X74110723Y-58698223D01*
X74128902Y-58681747D01*
X74148607Y-58667133D01*
X74169651Y-58654520D01*
X74191829Y-58644030D01*
X74214929Y-58635765D01*
X74238727Y-58629804D01*
X74262996Y-58626204D01*
X74287500Y-58625000D01*
X75212500Y-58625000D01*
X75237004Y-58626204D01*
X75237004Y-58626204D01*
G37*
D13*
X74750000Y-59500000D03*
D12*
G36*
X72262004Y-58626204D02*
G01*
X72286273Y-58629804D01*
X72310071Y-58635765D01*
X72333171Y-58644030D01*
X72355349Y-58654520D01*
X72376393Y-58667133D01*
X72396098Y-58681747D01*
X72414277Y-58698223D01*
X72430753Y-58716402D01*
X72445367Y-58736107D01*
X72457980Y-58757151D01*
X72468470Y-58779329D01*
X72476735Y-58802429D01*
X72482696Y-58826227D01*
X72486296Y-58850496D01*
X72487500Y-58875000D01*
X72487500Y-60125000D01*
X72486296Y-60149504D01*
X72482696Y-60173773D01*
X72476735Y-60197571D01*
X72468470Y-60220671D01*
X72457980Y-60242849D01*
X72445367Y-60263893D01*
X72430753Y-60283598D01*
X72414277Y-60301777D01*
X72396098Y-60318253D01*
X72376393Y-60332867D01*
X72355349Y-60345480D01*
X72333171Y-60355970D01*
X72310071Y-60364235D01*
X72286273Y-60370196D01*
X72262004Y-60373796D01*
X72237500Y-60375000D01*
X71312500Y-60375000D01*
X71287996Y-60373796D01*
X71263727Y-60370196D01*
X71239929Y-60364235D01*
X71216829Y-60355970D01*
X71194651Y-60345480D01*
X71173607Y-60332867D01*
X71153902Y-60318253D01*
X71135723Y-60301777D01*
X71119247Y-60283598D01*
X71104633Y-60263893D01*
X71092020Y-60242849D01*
X71081530Y-60220671D01*
X71073265Y-60197571D01*
X71067304Y-60173773D01*
X71063704Y-60149504D01*
X71062500Y-60125000D01*
X71062500Y-58875000D01*
X71063704Y-58850496D01*
X71067304Y-58826227D01*
X71073265Y-58802429D01*
X71081530Y-58779329D01*
X71092020Y-58757151D01*
X71104633Y-58736107D01*
X71119247Y-58716402D01*
X71135723Y-58698223D01*
X71153902Y-58681747D01*
X71173607Y-58667133D01*
X71194651Y-58654520D01*
X71216829Y-58644030D01*
X71239929Y-58635765D01*
X71263727Y-58629804D01*
X71287996Y-58626204D01*
X71312500Y-58625000D01*
X72237500Y-58625000D01*
X72262004Y-58626204D01*
X72262004Y-58626204D01*
G37*
D13*
X71775000Y-59500000D03*
D14*
X64600000Y-51250000D03*
X67900000Y-51250000D03*
X75400000Y-51250000D03*
X72100000Y-51250000D03*
D12*
G36*
X80230142Y-56888674D02*
G01*
X80253803Y-56892184D01*
X80277007Y-56897996D01*
X80299529Y-56906054D01*
X80321153Y-56916282D01*
X80341670Y-56928579D01*
X80360883Y-56942829D01*
X80378607Y-56958893D01*
X80394671Y-56976617D01*
X80408921Y-56995830D01*
X80421218Y-57016347D01*
X80431446Y-57037971D01*
X80439504Y-57060493D01*
X80445316Y-57083697D01*
X80448826Y-57107358D01*
X80450000Y-57131250D01*
X80450000Y-57618750D01*
X80448826Y-57642642D01*
X80445316Y-57666303D01*
X80439504Y-57689507D01*
X80431446Y-57712029D01*
X80421218Y-57733653D01*
X80408921Y-57754170D01*
X80394671Y-57773383D01*
X80378607Y-57791107D01*
X80360883Y-57807171D01*
X80341670Y-57821421D01*
X80321153Y-57833718D01*
X80299529Y-57843946D01*
X80277007Y-57852004D01*
X80253803Y-57857816D01*
X80230142Y-57861326D01*
X80206250Y-57862500D01*
X79293750Y-57862500D01*
X79269858Y-57861326D01*
X79246197Y-57857816D01*
X79222993Y-57852004D01*
X79200471Y-57843946D01*
X79178847Y-57833718D01*
X79158330Y-57821421D01*
X79139117Y-57807171D01*
X79121393Y-57791107D01*
X79105329Y-57773383D01*
X79091079Y-57754170D01*
X79078782Y-57733653D01*
X79068554Y-57712029D01*
X79060496Y-57689507D01*
X79054684Y-57666303D01*
X79051174Y-57642642D01*
X79050000Y-57618750D01*
X79050000Y-57131250D01*
X79051174Y-57107358D01*
X79054684Y-57083697D01*
X79060496Y-57060493D01*
X79068554Y-57037971D01*
X79078782Y-57016347D01*
X79091079Y-56995830D01*
X79105329Y-56976617D01*
X79121393Y-56958893D01*
X79139117Y-56942829D01*
X79158330Y-56928579D01*
X79178847Y-56916282D01*
X79200471Y-56906054D01*
X79222993Y-56897996D01*
X79246197Y-56892184D01*
X79269858Y-56888674D01*
X79293750Y-56887500D01*
X80206250Y-56887500D01*
X80230142Y-56888674D01*
X80230142Y-56888674D01*
G37*
D15*
X79750000Y-57375000D03*
D12*
G36*
X80230142Y-58763674D02*
G01*
X80253803Y-58767184D01*
X80277007Y-58772996D01*
X80299529Y-58781054D01*
X80321153Y-58791282D01*
X80341670Y-58803579D01*
X80360883Y-58817829D01*
X80378607Y-58833893D01*
X80394671Y-58851617D01*
X80408921Y-58870830D01*
X80421218Y-58891347D01*
X80431446Y-58912971D01*
X80439504Y-58935493D01*
X80445316Y-58958697D01*
X80448826Y-58982358D01*
X80450000Y-59006250D01*
X80450000Y-59493750D01*
X80448826Y-59517642D01*
X80445316Y-59541303D01*
X80439504Y-59564507D01*
X80431446Y-59587029D01*
X80421218Y-59608653D01*
X80408921Y-59629170D01*
X80394671Y-59648383D01*
X80378607Y-59666107D01*
X80360883Y-59682171D01*
X80341670Y-59696421D01*
X80321153Y-59708718D01*
X80299529Y-59718946D01*
X80277007Y-59727004D01*
X80253803Y-59732816D01*
X80230142Y-59736326D01*
X80206250Y-59737500D01*
X79293750Y-59737500D01*
X79269858Y-59736326D01*
X79246197Y-59732816D01*
X79222993Y-59727004D01*
X79200471Y-59718946D01*
X79178847Y-59708718D01*
X79158330Y-59696421D01*
X79139117Y-59682171D01*
X79121393Y-59666107D01*
X79105329Y-59648383D01*
X79091079Y-59629170D01*
X79078782Y-59608653D01*
X79068554Y-59587029D01*
X79060496Y-59564507D01*
X79054684Y-59541303D01*
X79051174Y-59517642D01*
X79050000Y-59493750D01*
X79050000Y-59006250D01*
X79051174Y-58982358D01*
X79054684Y-58958697D01*
X79060496Y-58935493D01*
X79068554Y-58912971D01*
X79078782Y-58891347D01*
X79091079Y-58870830D01*
X79105329Y-58851617D01*
X79121393Y-58833893D01*
X79139117Y-58817829D01*
X79158330Y-58803579D01*
X79178847Y-58791282D01*
X79200471Y-58781054D01*
X79222993Y-58772996D01*
X79246197Y-58767184D01*
X79269858Y-58763674D01*
X79293750Y-58762500D01*
X80206250Y-58762500D01*
X80230142Y-58763674D01*
X80230142Y-58763674D01*
G37*
D15*
X79750000Y-59250000D03*
D12*
G36*
X80224505Y-52151204D02*
G01*
X80248773Y-52154804D01*
X80272572Y-52160765D01*
X80295671Y-52169030D01*
X80317850Y-52179520D01*
X80338893Y-52192132D01*
X80358599Y-52206747D01*
X80376777Y-52223223D01*
X80393253Y-52241401D01*
X80407868Y-52261107D01*
X80420480Y-52282150D01*
X80430970Y-52304329D01*
X80439235Y-52327428D01*
X80445196Y-52351227D01*
X80448796Y-52375495D01*
X80450000Y-52399999D01*
X80450000Y-53050001D01*
X80448796Y-53074505D01*
X80445196Y-53098773D01*
X80439235Y-53122572D01*
X80430970Y-53145671D01*
X80420480Y-53167850D01*
X80407868Y-53188893D01*
X80393253Y-53208599D01*
X80376777Y-53226777D01*
X80358599Y-53243253D01*
X80338893Y-53257868D01*
X80317850Y-53270480D01*
X80295671Y-53280970D01*
X80272572Y-53289235D01*
X80248773Y-53295196D01*
X80224505Y-53298796D01*
X80200001Y-53300000D01*
X79299999Y-53300000D01*
X79275495Y-53298796D01*
X79251227Y-53295196D01*
X79227428Y-53289235D01*
X79204329Y-53280970D01*
X79182150Y-53270480D01*
X79161107Y-53257868D01*
X79141401Y-53243253D01*
X79123223Y-53226777D01*
X79106747Y-53208599D01*
X79092132Y-53188893D01*
X79079520Y-53167850D01*
X79069030Y-53145671D01*
X79060765Y-53122572D01*
X79054804Y-53098773D01*
X79051204Y-53074505D01*
X79050000Y-53050001D01*
X79050000Y-52399999D01*
X79051204Y-52375495D01*
X79054804Y-52351227D01*
X79060765Y-52327428D01*
X79069030Y-52304329D01*
X79079520Y-52282150D01*
X79092132Y-52261107D01*
X79106747Y-52241401D01*
X79123223Y-52223223D01*
X79141401Y-52206747D01*
X79161107Y-52192132D01*
X79182150Y-52179520D01*
X79204329Y-52169030D01*
X79227428Y-52160765D01*
X79251227Y-52154804D01*
X79275495Y-52151204D01*
X79299999Y-52150000D01*
X80200001Y-52150000D01*
X80224505Y-52151204D01*
X80224505Y-52151204D01*
G37*
D16*
X79750000Y-52725000D03*
D12*
G36*
X80224505Y-54201204D02*
G01*
X80248773Y-54204804D01*
X80272572Y-54210765D01*
X80295671Y-54219030D01*
X80317850Y-54229520D01*
X80338893Y-54242132D01*
X80358599Y-54256747D01*
X80376777Y-54273223D01*
X80393253Y-54291401D01*
X80407868Y-54311107D01*
X80420480Y-54332150D01*
X80430970Y-54354329D01*
X80439235Y-54377428D01*
X80445196Y-54401227D01*
X80448796Y-54425495D01*
X80450000Y-54449999D01*
X80450000Y-55100001D01*
X80448796Y-55124505D01*
X80445196Y-55148773D01*
X80439235Y-55172572D01*
X80430970Y-55195671D01*
X80420480Y-55217850D01*
X80407868Y-55238893D01*
X80393253Y-55258599D01*
X80376777Y-55276777D01*
X80358599Y-55293253D01*
X80338893Y-55307868D01*
X80317850Y-55320480D01*
X80295671Y-55330970D01*
X80272572Y-55339235D01*
X80248773Y-55345196D01*
X80224505Y-55348796D01*
X80200001Y-55350000D01*
X79299999Y-55350000D01*
X79275495Y-55348796D01*
X79251227Y-55345196D01*
X79227428Y-55339235D01*
X79204329Y-55330970D01*
X79182150Y-55320480D01*
X79161107Y-55307868D01*
X79141401Y-55293253D01*
X79123223Y-55276777D01*
X79106747Y-55258599D01*
X79092132Y-55238893D01*
X79079520Y-55217850D01*
X79069030Y-55195671D01*
X79060765Y-55172572D01*
X79054804Y-55148773D01*
X79051204Y-55124505D01*
X79050000Y-55100001D01*
X79050000Y-54449999D01*
X79051204Y-54425495D01*
X79054804Y-54401227D01*
X79060765Y-54377428D01*
X79069030Y-54354329D01*
X79079520Y-54332150D01*
X79092132Y-54311107D01*
X79106747Y-54291401D01*
X79123223Y-54273223D01*
X79141401Y-54256747D01*
X79161107Y-54242132D01*
X79182150Y-54229520D01*
X79204329Y-54219030D01*
X79227428Y-54210765D01*
X79251227Y-54204804D01*
X79275495Y-54201204D01*
X79299999Y-54200000D01*
X80200001Y-54200000D01*
X80224505Y-54201204D01*
X80224505Y-54201204D01*
G37*
D16*
X79750000Y-54775000D03*
D12*
G36*
X94149504Y-55788704D02*
G01*
X94173773Y-55792304D01*
X94197571Y-55798265D01*
X94220671Y-55806530D01*
X94242849Y-55817020D01*
X94263893Y-55829633D01*
X94283598Y-55844247D01*
X94301777Y-55860723D01*
X94318253Y-55878902D01*
X94332867Y-55898607D01*
X94345480Y-55919651D01*
X94355970Y-55941829D01*
X94364235Y-55964929D01*
X94370196Y-55988727D01*
X94373796Y-56012996D01*
X94375000Y-56037500D01*
X94375000Y-56962500D01*
X94373796Y-56987004D01*
X94370196Y-57011273D01*
X94364235Y-57035071D01*
X94355970Y-57058171D01*
X94345480Y-57080349D01*
X94332867Y-57101393D01*
X94318253Y-57121098D01*
X94301777Y-57139277D01*
X94283598Y-57155753D01*
X94263893Y-57170367D01*
X94242849Y-57182980D01*
X94220671Y-57193470D01*
X94197571Y-57201735D01*
X94173773Y-57207696D01*
X94149504Y-57211296D01*
X94125000Y-57212500D01*
X92875000Y-57212500D01*
X92850496Y-57211296D01*
X92826227Y-57207696D01*
X92802429Y-57201735D01*
X92779329Y-57193470D01*
X92757151Y-57182980D01*
X92736107Y-57170367D01*
X92716402Y-57155753D01*
X92698223Y-57139277D01*
X92681747Y-57121098D01*
X92667133Y-57101393D01*
X92654520Y-57080349D01*
X92644030Y-57058171D01*
X92635765Y-57035071D01*
X92629804Y-57011273D01*
X92626204Y-56987004D01*
X92625000Y-56962500D01*
X92625000Y-56037500D01*
X92626204Y-56012996D01*
X92629804Y-55988727D01*
X92635765Y-55964929D01*
X92644030Y-55941829D01*
X92654520Y-55919651D01*
X92667133Y-55898607D01*
X92681747Y-55878902D01*
X92698223Y-55860723D01*
X92716402Y-55844247D01*
X92736107Y-55829633D01*
X92757151Y-55817020D01*
X92779329Y-55806530D01*
X92802429Y-55798265D01*
X92826227Y-55792304D01*
X92850496Y-55788704D01*
X92875000Y-55787500D01*
X94125000Y-55787500D01*
X94149504Y-55788704D01*
X94149504Y-55788704D01*
G37*
D13*
X93500000Y-56500000D03*
D12*
G36*
X94149504Y-52813704D02*
G01*
X94173773Y-52817304D01*
X94197571Y-52823265D01*
X94220671Y-52831530D01*
X94242849Y-52842020D01*
X94263893Y-52854633D01*
X94283598Y-52869247D01*
X94301777Y-52885723D01*
X94318253Y-52903902D01*
X94332867Y-52923607D01*
X94345480Y-52944651D01*
X94355970Y-52966829D01*
X94364235Y-52989929D01*
X94370196Y-53013727D01*
X94373796Y-53037996D01*
X94375000Y-53062500D01*
X94375000Y-53987500D01*
X94373796Y-54012004D01*
X94370196Y-54036273D01*
X94364235Y-54060071D01*
X94355970Y-54083171D01*
X94345480Y-54105349D01*
X94332867Y-54126393D01*
X94318253Y-54146098D01*
X94301777Y-54164277D01*
X94283598Y-54180753D01*
X94263893Y-54195367D01*
X94242849Y-54207980D01*
X94220671Y-54218470D01*
X94197571Y-54226735D01*
X94173773Y-54232696D01*
X94149504Y-54236296D01*
X94125000Y-54237500D01*
X92875000Y-54237500D01*
X92850496Y-54236296D01*
X92826227Y-54232696D01*
X92802429Y-54226735D01*
X92779329Y-54218470D01*
X92757151Y-54207980D01*
X92736107Y-54195367D01*
X92716402Y-54180753D01*
X92698223Y-54164277D01*
X92681747Y-54146098D01*
X92667133Y-54126393D01*
X92654520Y-54105349D01*
X92644030Y-54083171D01*
X92635765Y-54060071D01*
X92629804Y-54036273D01*
X92626204Y-54012004D01*
X92625000Y-53987500D01*
X92625000Y-53062500D01*
X92626204Y-53037996D01*
X92629804Y-53013727D01*
X92635765Y-52989929D01*
X92644030Y-52966829D01*
X92654520Y-52944651D01*
X92667133Y-52923607D01*
X92681747Y-52903902D01*
X92698223Y-52885723D01*
X92716402Y-52869247D01*
X92736107Y-52854633D01*
X92757151Y-52842020D01*
X92779329Y-52831530D01*
X92802429Y-52823265D01*
X92826227Y-52817304D01*
X92850496Y-52813704D01*
X92875000Y-52812500D01*
X94125000Y-52812500D01*
X94149504Y-52813704D01*
X94149504Y-52813704D01*
G37*
D13*
X93500000Y-53525000D03*
D12*
G36*
X109899504Y-52551204D02*
G01*
X109923773Y-52554804D01*
X109947571Y-52560765D01*
X109970671Y-52569030D01*
X109992849Y-52579520D01*
X110013893Y-52592133D01*
X110033598Y-52606747D01*
X110051777Y-52623223D01*
X110068253Y-52641402D01*
X110082867Y-52661107D01*
X110095480Y-52682151D01*
X110105970Y-52704329D01*
X110114235Y-52727429D01*
X110120196Y-52751227D01*
X110123796Y-52775496D01*
X110125000Y-52800000D01*
X110125000Y-53725000D01*
X110123796Y-53749504D01*
X110120196Y-53773773D01*
X110114235Y-53797571D01*
X110105970Y-53820671D01*
X110095480Y-53842849D01*
X110082867Y-53863893D01*
X110068253Y-53883598D01*
X110051777Y-53901777D01*
X110033598Y-53918253D01*
X110013893Y-53932867D01*
X109992849Y-53945480D01*
X109970671Y-53955970D01*
X109947571Y-53964235D01*
X109923773Y-53970196D01*
X109899504Y-53973796D01*
X109875000Y-53975000D01*
X108625000Y-53975000D01*
X108600496Y-53973796D01*
X108576227Y-53970196D01*
X108552429Y-53964235D01*
X108529329Y-53955970D01*
X108507151Y-53945480D01*
X108486107Y-53932867D01*
X108466402Y-53918253D01*
X108448223Y-53901777D01*
X108431747Y-53883598D01*
X108417133Y-53863893D01*
X108404520Y-53842849D01*
X108394030Y-53820671D01*
X108385765Y-53797571D01*
X108379804Y-53773773D01*
X108376204Y-53749504D01*
X108375000Y-53725000D01*
X108375000Y-52800000D01*
X108376204Y-52775496D01*
X108379804Y-52751227D01*
X108385765Y-52727429D01*
X108394030Y-52704329D01*
X108404520Y-52682151D01*
X108417133Y-52661107D01*
X108431747Y-52641402D01*
X108448223Y-52623223D01*
X108466402Y-52606747D01*
X108486107Y-52592133D01*
X108507151Y-52579520D01*
X108529329Y-52569030D01*
X108552429Y-52560765D01*
X108576227Y-52554804D01*
X108600496Y-52551204D01*
X108625000Y-52550000D01*
X109875000Y-52550000D01*
X109899504Y-52551204D01*
X109899504Y-52551204D01*
G37*
D13*
X109250000Y-53262500D03*
D12*
G36*
X109899504Y-55526204D02*
G01*
X109923773Y-55529804D01*
X109947571Y-55535765D01*
X109970671Y-55544030D01*
X109992849Y-55554520D01*
X110013893Y-55567133D01*
X110033598Y-55581747D01*
X110051777Y-55598223D01*
X110068253Y-55616402D01*
X110082867Y-55636107D01*
X110095480Y-55657151D01*
X110105970Y-55679329D01*
X110114235Y-55702429D01*
X110120196Y-55726227D01*
X110123796Y-55750496D01*
X110125000Y-55775000D01*
X110125000Y-56700000D01*
X110123796Y-56724504D01*
X110120196Y-56748773D01*
X110114235Y-56772571D01*
X110105970Y-56795671D01*
X110095480Y-56817849D01*
X110082867Y-56838893D01*
X110068253Y-56858598D01*
X110051777Y-56876777D01*
X110033598Y-56893253D01*
X110013893Y-56907867D01*
X109992849Y-56920480D01*
X109970671Y-56930970D01*
X109947571Y-56939235D01*
X109923773Y-56945196D01*
X109899504Y-56948796D01*
X109875000Y-56950000D01*
X108625000Y-56950000D01*
X108600496Y-56948796D01*
X108576227Y-56945196D01*
X108552429Y-56939235D01*
X108529329Y-56930970D01*
X108507151Y-56920480D01*
X108486107Y-56907867D01*
X108466402Y-56893253D01*
X108448223Y-56876777D01*
X108431747Y-56858598D01*
X108417133Y-56838893D01*
X108404520Y-56817849D01*
X108394030Y-56795671D01*
X108385765Y-56772571D01*
X108379804Y-56748773D01*
X108376204Y-56724504D01*
X108375000Y-56700000D01*
X108375000Y-55775000D01*
X108376204Y-55750496D01*
X108379804Y-55726227D01*
X108385765Y-55702429D01*
X108394030Y-55679329D01*
X108404520Y-55657151D01*
X108417133Y-55636107D01*
X108431747Y-55616402D01*
X108448223Y-55598223D01*
X108466402Y-55581747D01*
X108486107Y-55567133D01*
X108507151Y-55554520D01*
X108529329Y-55544030D01*
X108552429Y-55535765D01*
X108576227Y-55529804D01*
X108600496Y-55526204D01*
X108625000Y-55525000D01*
X109875000Y-55525000D01*
X109899504Y-55526204D01*
X109899504Y-55526204D01*
G37*
D13*
X109250000Y-56237500D03*
D12*
G36*
X100974505Y-126701204D02*
G01*
X100998773Y-126704804D01*
X101022572Y-126710765D01*
X101045671Y-126719030D01*
X101067850Y-126729520D01*
X101088893Y-126742132D01*
X101108599Y-126756747D01*
X101126777Y-126773223D01*
X101143253Y-126791401D01*
X101157868Y-126811107D01*
X101170480Y-126832150D01*
X101180970Y-126854329D01*
X101189235Y-126877428D01*
X101195196Y-126901227D01*
X101198796Y-126925495D01*
X101200000Y-126949999D01*
X101200000Y-127600001D01*
X101198796Y-127624505D01*
X101195196Y-127648773D01*
X101189235Y-127672572D01*
X101180970Y-127695671D01*
X101170480Y-127717850D01*
X101157868Y-127738893D01*
X101143253Y-127758599D01*
X101126777Y-127776777D01*
X101108599Y-127793253D01*
X101088893Y-127807868D01*
X101067850Y-127820480D01*
X101045671Y-127830970D01*
X101022572Y-127839235D01*
X100998773Y-127845196D01*
X100974505Y-127848796D01*
X100950001Y-127850000D01*
X100049999Y-127850000D01*
X100025495Y-127848796D01*
X100001227Y-127845196D01*
X99977428Y-127839235D01*
X99954329Y-127830970D01*
X99932150Y-127820480D01*
X99911107Y-127807868D01*
X99891401Y-127793253D01*
X99873223Y-127776777D01*
X99856747Y-127758599D01*
X99842132Y-127738893D01*
X99829520Y-127717850D01*
X99819030Y-127695671D01*
X99810765Y-127672572D01*
X99804804Y-127648773D01*
X99801204Y-127624505D01*
X99800000Y-127600001D01*
X99800000Y-126949999D01*
X99801204Y-126925495D01*
X99804804Y-126901227D01*
X99810765Y-126877428D01*
X99819030Y-126854329D01*
X99829520Y-126832150D01*
X99842132Y-126811107D01*
X99856747Y-126791401D01*
X99873223Y-126773223D01*
X99891401Y-126756747D01*
X99911107Y-126742132D01*
X99932150Y-126729520D01*
X99954329Y-126719030D01*
X99977428Y-126710765D01*
X100001227Y-126704804D01*
X100025495Y-126701204D01*
X100049999Y-126700000D01*
X100950001Y-126700000D01*
X100974505Y-126701204D01*
X100974505Y-126701204D01*
G37*
D16*
X100500000Y-127275000D03*
D12*
G36*
X100974505Y-124651204D02*
G01*
X100998773Y-124654804D01*
X101022572Y-124660765D01*
X101045671Y-124669030D01*
X101067850Y-124679520D01*
X101088893Y-124692132D01*
X101108599Y-124706747D01*
X101126777Y-124723223D01*
X101143253Y-124741401D01*
X101157868Y-124761107D01*
X101170480Y-124782150D01*
X101180970Y-124804329D01*
X101189235Y-124827428D01*
X101195196Y-124851227D01*
X101198796Y-124875495D01*
X101200000Y-124899999D01*
X101200000Y-125550001D01*
X101198796Y-125574505D01*
X101195196Y-125598773D01*
X101189235Y-125622572D01*
X101180970Y-125645671D01*
X101170480Y-125667850D01*
X101157868Y-125688893D01*
X101143253Y-125708599D01*
X101126777Y-125726777D01*
X101108599Y-125743253D01*
X101088893Y-125757868D01*
X101067850Y-125770480D01*
X101045671Y-125780970D01*
X101022572Y-125789235D01*
X100998773Y-125795196D01*
X100974505Y-125798796D01*
X100950001Y-125800000D01*
X100049999Y-125800000D01*
X100025495Y-125798796D01*
X100001227Y-125795196D01*
X99977428Y-125789235D01*
X99954329Y-125780970D01*
X99932150Y-125770480D01*
X99911107Y-125757868D01*
X99891401Y-125743253D01*
X99873223Y-125726777D01*
X99856747Y-125708599D01*
X99842132Y-125688893D01*
X99829520Y-125667850D01*
X99819030Y-125645671D01*
X99810765Y-125622572D01*
X99804804Y-125598773D01*
X99801204Y-125574505D01*
X99800000Y-125550001D01*
X99800000Y-124899999D01*
X99801204Y-124875495D01*
X99804804Y-124851227D01*
X99810765Y-124827428D01*
X99819030Y-124804329D01*
X99829520Y-124782150D01*
X99842132Y-124761107D01*
X99856747Y-124741401D01*
X99873223Y-124723223D01*
X99891401Y-124706747D01*
X99911107Y-124692132D01*
X99932150Y-124679520D01*
X99954329Y-124669030D01*
X99977428Y-124660765D01*
X100001227Y-124654804D01*
X100025495Y-124651204D01*
X100049999Y-124650000D01*
X100950001Y-124650000D01*
X100974505Y-124651204D01*
X100974505Y-124651204D01*
G37*
D16*
X100500000Y-125225000D03*
D14*
X99150000Y-51250000D03*
X95850000Y-51250000D03*
X103350000Y-51250000D03*
X106650000Y-51250000D03*
D17*
X98000000Y-131000000D03*
X98000000Y-129100000D03*
X95000000Y-130050000D03*
X103500000Y-130950000D03*
X103500000Y-129050000D03*
X100500000Y-130000000D03*
X105750000Y-130000000D03*
X108750000Y-129050000D03*
X108750000Y-130950000D03*
D12*
G36*
X103724505Y-126701204D02*
G01*
X103748773Y-126704804D01*
X103772572Y-126710765D01*
X103795671Y-126719030D01*
X103817850Y-126729520D01*
X103838893Y-126742132D01*
X103858599Y-126756747D01*
X103876777Y-126773223D01*
X103893253Y-126791401D01*
X103907868Y-126811107D01*
X103920480Y-126832150D01*
X103930970Y-126854329D01*
X103939235Y-126877428D01*
X103945196Y-126901227D01*
X103948796Y-126925495D01*
X103950000Y-126949999D01*
X103950000Y-127600001D01*
X103948796Y-127624505D01*
X103945196Y-127648773D01*
X103939235Y-127672572D01*
X103930970Y-127695671D01*
X103920480Y-127717850D01*
X103907868Y-127738893D01*
X103893253Y-127758599D01*
X103876777Y-127776777D01*
X103858599Y-127793253D01*
X103838893Y-127807868D01*
X103817850Y-127820480D01*
X103795671Y-127830970D01*
X103772572Y-127839235D01*
X103748773Y-127845196D01*
X103724505Y-127848796D01*
X103700001Y-127850000D01*
X102799999Y-127850000D01*
X102775495Y-127848796D01*
X102751227Y-127845196D01*
X102727428Y-127839235D01*
X102704329Y-127830970D01*
X102682150Y-127820480D01*
X102661107Y-127807868D01*
X102641401Y-127793253D01*
X102623223Y-127776777D01*
X102606747Y-127758599D01*
X102592132Y-127738893D01*
X102579520Y-127717850D01*
X102569030Y-127695671D01*
X102560765Y-127672572D01*
X102554804Y-127648773D01*
X102551204Y-127624505D01*
X102550000Y-127600001D01*
X102550000Y-126949999D01*
X102551204Y-126925495D01*
X102554804Y-126901227D01*
X102560765Y-126877428D01*
X102569030Y-126854329D01*
X102579520Y-126832150D01*
X102592132Y-126811107D01*
X102606747Y-126791401D01*
X102623223Y-126773223D01*
X102641401Y-126756747D01*
X102661107Y-126742132D01*
X102682150Y-126729520D01*
X102704329Y-126719030D01*
X102727428Y-126710765D01*
X102751227Y-126704804D01*
X102775495Y-126701204D01*
X102799999Y-126700000D01*
X103700001Y-126700000D01*
X103724505Y-126701204D01*
X103724505Y-126701204D01*
G37*
D16*
X103250000Y-127275000D03*
D12*
G36*
X103724505Y-124651204D02*
G01*
X103748773Y-124654804D01*
X103772572Y-124660765D01*
X103795671Y-124669030D01*
X103817850Y-124679520D01*
X103838893Y-124692132D01*
X103858599Y-124706747D01*
X103876777Y-124723223D01*
X103893253Y-124741401D01*
X103907868Y-124761107D01*
X103920480Y-124782150D01*
X103930970Y-124804329D01*
X103939235Y-124827428D01*
X103945196Y-124851227D01*
X103948796Y-124875495D01*
X103950000Y-124899999D01*
X103950000Y-125550001D01*
X103948796Y-125574505D01*
X103945196Y-125598773D01*
X103939235Y-125622572D01*
X103930970Y-125645671D01*
X103920480Y-125667850D01*
X103907868Y-125688893D01*
X103893253Y-125708599D01*
X103876777Y-125726777D01*
X103858599Y-125743253D01*
X103838893Y-125757868D01*
X103817850Y-125770480D01*
X103795671Y-125780970D01*
X103772572Y-125789235D01*
X103748773Y-125795196D01*
X103724505Y-125798796D01*
X103700001Y-125800000D01*
X102799999Y-125800000D01*
X102775495Y-125798796D01*
X102751227Y-125795196D01*
X102727428Y-125789235D01*
X102704329Y-125780970D01*
X102682150Y-125770480D01*
X102661107Y-125757868D01*
X102641401Y-125743253D01*
X102623223Y-125726777D01*
X102606747Y-125708599D01*
X102592132Y-125688893D01*
X102579520Y-125667850D01*
X102569030Y-125645671D01*
X102560765Y-125622572D01*
X102554804Y-125598773D01*
X102551204Y-125574505D01*
X102550000Y-125550001D01*
X102550000Y-124899999D01*
X102551204Y-124875495D01*
X102554804Y-124851227D01*
X102560765Y-124827428D01*
X102569030Y-124804329D01*
X102579520Y-124782150D01*
X102592132Y-124761107D01*
X102606747Y-124741401D01*
X102623223Y-124723223D01*
X102641401Y-124706747D01*
X102661107Y-124692132D01*
X102682150Y-124679520D01*
X102704329Y-124669030D01*
X102727428Y-124660765D01*
X102751227Y-124654804D01*
X102775495Y-124651204D01*
X102799999Y-124650000D01*
X103700001Y-124650000D01*
X103724505Y-124651204D01*
X103724505Y-124651204D01*
G37*
D16*
X103250000Y-125225000D03*
D12*
G36*
X106474505Y-124626204D02*
G01*
X106498773Y-124629804D01*
X106522572Y-124635765D01*
X106545671Y-124644030D01*
X106567850Y-124654520D01*
X106588893Y-124667132D01*
X106608599Y-124681747D01*
X106626777Y-124698223D01*
X106643253Y-124716401D01*
X106657868Y-124736107D01*
X106670480Y-124757150D01*
X106680970Y-124779329D01*
X106689235Y-124802428D01*
X106695196Y-124826227D01*
X106698796Y-124850495D01*
X106700000Y-124874999D01*
X106700000Y-125525001D01*
X106698796Y-125549505D01*
X106695196Y-125573773D01*
X106689235Y-125597572D01*
X106680970Y-125620671D01*
X106670480Y-125642850D01*
X106657868Y-125663893D01*
X106643253Y-125683599D01*
X106626777Y-125701777D01*
X106608599Y-125718253D01*
X106588893Y-125732868D01*
X106567850Y-125745480D01*
X106545671Y-125755970D01*
X106522572Y-125764235D01*
X106498773Y-125770196D01*
X106474505Y-125773796D01*
X106450001Y-125775000D01*
X105549999Y-125775000D01*
X105525495Y-125773796D01*
X105501227Y-125770196D01*
X105477428Y-125764235D01*
X105454329Y-125755970D01*
X105432150Y-125745480D01*
X105411107Y-125732868D01*
X105391401Y-125718253D01*
X105373223Y-125701777D01*
X105356747Y-125683599D01*
X105342132Y-125663893D01*
X105329520Y-125642850D01*
X105319030Y-125620671D01*
X105310765Y-125597572D01*
X105304804Y-125573773D01*
X105301204Y-125549505D01*
X105300000Y-125525001D01*
X105300000Y-124874999D01*
X105301204Y-124850495D01*
X105304804Y-124826227D01*
X105310765Y-124802428D01*
X105319030Y-124779329D01*
X105329520Y-124757150D01*
X105342132Y-124736107D01*
X105356747Y-124716401D01*
X105373223Y-124698223D01*
X105391401Y-124681747D01*
X105411107Y-124667132D01*
X105432150Y-124654520D01*
X105454329Y-124644030D01*
X105477428Y-124635765D01*
X105501227Y-124629804D01*
X105525495Y-124626204D01*
X105549999Y-124625000D01*
X106450001Y-124625000D01*
X106474505Y-124626204D01*
X106474505Y-124626204D01*
G37*
D16*
X106000000Y-125200000D03*
D12*
G36*
X106474505Y-126676204D02*
G01*
X106498773Y-126679804D01*
X106522572Y-126685765D01*
X106545671Y-126694030D01*
X106567850Y-126704520D01*
X106588893Y-126717132D01*
X106608599Y-126731747D01*
X106626777Y-126748223D01*
X106643253Y-126766401D01*
X106657868Y-126786107D01*
X106670480Y-126807150D01*
X106680970Y-126829329D01*
X106689235Y-126852428D01*
X106695196Y-126876227D01*
X106698796Y-126900495D01*
X106700000Y-126924999D01*
X106700000Y-127575001D01*
X106698796Y-127599505D01*
X106695196Y-127623773D01*
X106689235Y-127647572D01*
X106680970Y-127670671D01*
X106670480Y-127692850D01*
X106657868Y-127713893D01*
X106643253Y-127733599D01*
X106626777Y-127751777D01*
X106608599Y-127768253D01*
X106588893Y-127782868D01*
X106567850Y-127795480D01*
X106545671Y-127805970D01*
X106522572Y-127814235D01*
X106498773Y-127820196D01*
X106474505Y-127823796D01*
X106450001Y-127825000D01*
X105549999Y-127825000D01*
X105525495Y-127823796D01*
X105501227Y-127820196D01*
X105477428Y-127814235D01*
X105454329Y-127805970D01*
X105432150Y-127795480D01*
X105411107Y-127782868D01*
X105391401Y-127768253D01*
X105373223Y-127751777D01*
X105356747Y-127733599D01*
X105342132Y-127713893D01*
X105329520Y-127692850D01*
X105319030Y-127670671D01*
X105310765Y-127647572D01*
X105304804Y-127623773D01*
X105301204Y-127599505D01*
X105300000Y-127575001D01*
X105300000Y-126924999D01*
X105301204Y-126900495D01*
X105304804Y-126876227D01*
X105310765Y-126852428D01*
X105319030Y-126829329D01*
X105329520Y-126807150D01*
X105342132Y-126786107D01*
X105356747Y-126766401D01*
X105373223Y-126748223D01*
X105391401Y-126731747D01*
X105411107Y-126717132D01*
X105432150Y-126704520D01*
X105454329Y-126694030D01*
X105477428Y-126685765D01*
X105501227Y-126679804D01*
X105525495Y-126676204D01*
X105549999Y-126675000D01*
X106450001Y-126675000D01*
X106474505Y-126676204D01*
X106474505Y-126676204D01*
G37*
D16*
X106000000Y-127250000D03*
D12*
G36*
X109474505Y-126701204D02*
G01*
X109498773Y-126704804D01*
X109522572Y-126710765D01*
X109545671Y-126719030D01*
X109567850Y-126729520D01*
X109588893Y-126742132D01*
X109608599Y-126756747D01*
X109626777Y-126773223D01*
X109643253Y-126791401D01*
X109657868Y-126811107D01*
X109670480Y-126832150D01*
X109680970Y-126854329D01*
X109689235Y-126877428D01*
X109695196Y-126901227D01*
X109698796Y-126925495D01*
X109700000Y-126949999D01*
X109700000Y-127600001D01*
X109698796Y-127624505D01*
X109695196Y-127648773D01*
X109689235Y-127672572D01*
X109680970Y-127695671D01*
X109670480Y-127717850D01*
X109657868Y-127738893D01*
X109643253Y-127758599D01*
X109626777Y-127776777D01*
X109608599Y-127793253D01*
X109588893Y-127807868D01*
X109567850Y-127820480D01*
X109545671Y-127830970D01*
X109522572Y-127839235D01*
X109498773Y-127845196D01*
X109474505Y-127848796D01*
X109450001Y-127850000D01*
X108549999Y-127850000D01*
X108525495Y-127848796D01*
X108501227Y-127845196D01*
X108477428Y-127839235D01*
X108454329Y-127830970D01*
X108432150Y-127820480D01*
X108411107Y-127807868D01*
X108391401Y-127793253D01*
X108373223Y-127776777D01*
X108356747Y-127758599D01*
X108342132Y-127738893D01*
X108329520Y-127717850D01*
X108319030Y-127695671D01*
X108310765Y-127672572D01*
X108304804Y-127648773D01*
X108301204Y-127624505D01*
X108300000Y-127600001D01*
X108300000Y-126949999D01*
X108301204Y-126925495D01*
X108304804Y-126901227D01*
X108310765Y-126877428D01*
X108319030Y-126854329D01*
X108329520Y-126832150D01*
X108342132Y-126811107D01*
X108356747Y-126791401D01*
X108373223Y-126773223D01*
X108391401Y-126756747D01*
X108411107Y-126742132D01*
X108432150Y-126729520D01*
X108454329Y-126719030D01*
X108477428Y-126710765D01*
X108501227Y-126704804D01*
X108525495Y-126701204D01*
X108549999Y-126700000D01*
X109450001Y-126700000D01*
X109474505Y-126701204D01*
X109474505Y-126701204D01*
G37*
D16*
X109000000Y-127275000D03*
D12*
G36*
X109474505Y-124651204D02*
G01*
X109498773Y-124654804D01*
X109522572Y-124660765D01*
X109545671Y-124669030D01*
X109567850Y-124679520D01*
X109588893Y-124692132D01*
X109608599Y-124706747D01*
X109626777Y-124723223D01*
X109643253Y-124741401D01*
X109657868Y-124761107D01*
X109670480Y-124782150D01*
X109680970Y-124804329D01*
X109689235Y-124827428D01*
X109695196Y-124851227D01*
X109698796Y-124875495D01*
X109700000Y-124899999D01*
X109700000Y-125550001D01*
X109698796Y-125574505D01*
X109695196Y-125598773D01*
X109689235Y-125622572D01*
X109680970Y-125645671D01*
X109670480Y-125667850D01*
X109657868Y-125688893D01*
X109643253Y-125708599D01*
X109626777Y-125726777D01*
X109608599Y-125743253D01*
X109588893Y-125757868D01*
X109567850Y-125770480D01*
X109545671Y-125780970D01*
X109522572Y-125789235D01*
X109498773Y-125795196D01*
X109474505Y-125798796D01*
X109450001Y-125800000D01*
X108549999Y-125800000D01*
X108525495Y-125798796D01*
X108501227Y-125795196D01*
X108477428Y-125789235D01*
X108454329Y-125780970D01*
X108432150Y-125770480D01*
X108411107Y-125757868D01*
X108391401Y-125743253D01*
X108373223Y-125726777D01*
X108356747Y-125708599D01*
X108342132Y-125688893D01*
X108329520Y-125667850D01*
X108319030Y-125645671D01*
X108310765Y-125622572D01*
X108304804Y-125598773D01*
X108301204Y-125574505D01*
X108300000Y-125550001D01*
X108300000Y-124899999D01*
X108301204Y-124875495D01*
X108304804Y-124851227D01*
X108310765Y-124827428D01*
X108319030Y-124804329D01*
X108329520Y-124782150D01*
X108342132Y-124761107D01*
X108356747Y-124741401D01*
X108373223Y-124723223D01*
X108391401Y-124706747D01*
X108411107Y-124692132D01*
X108432150Y-124679520D01*
X108454329Y-124669030D01*
X108477428Y-124660765D01*
X108501227Y-124654804D01*
X108525495Y-124651204D01*
X108549999Y-124650000D01*
X109450001Y-124650000D01*
X109474505Y-124651204D01*
X109474505Y-124651204D01*
G37*
D16*
X109000000Y-125225000D03*
D12*
G36*
X125999504Y-58126204D02*
G01*
X126023773Y-58129804D01*
X126047571Y-58135765D01*
X126070671Y-58144030D01*
X126092849Y-58154520D01*
X126113893Y-58167133D01*
X126133598Y-58181747D01*
X126151777Y-58198223D01*
X126168253Y-58216402D01*
X126182867Y-58236107D01*
X126195480Y-58257151D01*
X126205970Y-58279329D01*
X126214235Y-58302429D01*
X126220196Y-58326227D01*
X126223796Y-58350496D01*
X126225000Y-58375000D01*
X126225000Y-59625000D01*
X126223796Y-59649504D01*
X126220196Y-59673773D01*
X126214235Y-59697571D01*
X126205970Y-59720671D01*
X126195480Y-59742849D01*
X126182867Y-59763893D01*
X126168253Y-59783598D01*
X126151777Y-59801777D01*
X126133598Y-59818253D01*
X126113893Y-59832867D01*
X126092849Y-59845480D01*
X126070671Y-59855970D01*
X126047571Y-59864235D01*
X126023773Y-59870196D01*
X125999504Y-59873796D01*
X125975000Y-59875000D01*
X125050000Y-59875000D01*
X125025496Y-59873796D01*
X125001227Y-59870196D01*
X124977429Y-59864235D01*
X124954329Y-59855970D01*
X124932151Y-59845480D01*
X124911107Y-59832867D01*
X124891402Y-59818253D01*
X124873223Y-59801777D01*
X124856747Y-59783598D01*
X124842133Y-59763893D01*
X124829520Y-59742849D01*
X124819030Y-59720671D01*
X124810765Y-59697571D01*
X124804804Y-59673773D01*
X124801204Y-59649504D01*
X124800000Y-59625000D01*
X124800000Y-58375000D01*
X124801204Y-58350496D01*
X124804804Y-58326227D01*
X124810765Y-58302429D01*
X124819030Y-58279329D01*
X124829520Y-58257151D01*
X124842133Y-58236107D01*
X124856747Y-58216402D01*
X124873223Y-58198223D01*
X124891402Y-58181747D01*
X124911107Y-58167133D01*
X124932151Y-58154520D01*
X124954329Y-58144030D01*
X124977429Y-58135765D01*
X125001227Y-58129804D01*
X125025496Y-58126204D01*
X125050000Y-58125000D01*
X125975000Y-58125000D01*
X125999504Y-58126204D01*
X125999504Y-58126204D01*
G37*
D13*
X125512500Y-59000000D03*
D12*
G36*
X128974504Y-58126204D02*
G01*
X128998773Y-58129804D01*
X129022571Y-58135765D01*
X129045671Y-58144030D01*
X129067849Y-58154520D01*
X129088893Y-58167133D01*
X129108598Y-58181747D01*
X129126777Y-58198223D01*
X129143253Y-58216402D01*
X129157867Y-58236107D01*
X129170480Y-58257151D01*
X129180970Y-58279329D01*
X129189235Y-58302429D01*
X129195196Y-58326227D01*
X129198796Y-58350496D01*
X129200000Y-58375000D01*
X129200000Y-59625000D01*
X129198796Y-59649504D01*
X129195196Y-59673773D01*
X129189235Y-59697571D01*
X129180970Y-59720671D01*
X129170480Y-59742849D01*
X129157867Y-59763893D01*
X129143253Y-59783598D01*
X129126777Y-59801777D01*
X129108598Y-59818253D01*
X129088893Y-59832867D01*
X129067849Y-59845480D01*
X129045671Y-59855970D01*
X129022571Y-59864235D01*
X128998773Y-59870196D01*
X128974504Y-59873796D01*
X128950000Y-59875000D01*
X128025000Y-59875000D01*
X128000496Y-59873796D01*
X127976227Y-59870196D01*
X127952429Y-59864235D01*
X127929329Y-59855970D01*
X127907151Y-59845480D01*
X127886107Y-59832867D01*
X127866402Y-59818253D01*
X127848223Y-59801777D01*
X127831747Y-59783598D01*
X127817133Y-59763893D01*
X127804520Y-59742849D01*
X127794030Y-59720671D01*
X127785765Y-59697571D01*
X127779804Y-59673773D01*
X127776204Y-59649504D01*
X127775000Y-59625000D01*
X127775000Y-58375000D01*
X127776204Y-58350496D01*
X127779804Y-58326227D01*
X127785765Y-58302429D01*
X127794030Y-58279329D01*
X127804520Y-58257151D01*
X127817133Y-58236107D01*
X127831747Y-58216402D01*
X127848223Y-58198223D01*
X127866402Y-58181747D01*
X127886107Y-58167133D01*
X127907151Y-58154520D01*
X127929329Y-58144030D01*
X127952429Y-58135765D01*
X127976227Y-58129804D01*
X128000496Y-58126204D01*
X128025000Y-58125000D01*
X128950000Y-58125000D01*
X128974504Y-58126204D01*
X128974504Y-58126204D01*
G37*
D13*
X128487500Y-59000000D03*
D12*
G36*
X133999504Y-58126204D02*
G01*
X134023773Y-58129804D01*
X134047571Y-58135765D01*
X134070671Y-58144030D01*
X134092849Y-58154520D01*
X134113893Y-58167133D01*
X134133598Y-58181747D01*
X134151777Y-58198223D01*
X134168253Y-58216402D01*
X134182867Y-58236107D01*
X134195480Y-58257151D01*
X134205970Y-58279329D01*
X134214235Y-58302429D01*
X134220196Y-58326227D01*
X134223796Y-58350496D01*
X134225000Y-58375000D01*
X134225000Y-59625000D01*
X134223796Y-59649504D01*
X134220196Y-59673773D01*
X134214235Y-59697571D01*
X134205970Y-59720671D01*
X134195480Y-59742849D01*
X134182867Y-59763893D01*
X134168253Y-59783598D01*
X134151777Y-59801777D01*
X134133598Y-59818253D01*
X134113893Y-59832867D01*
X134092849Y-59845480D01*
X134070671Y-59855970D01*
X134047571Y-59864235D01*
X134023773Y-59870196D01*
X133999504Y-59873796D01*
X133975000Y-59875000D01*
X133050000Y-59875000D01*
X133025496Y-59873796D01*
X133001227Y-59870196D01*
X132977429Y-59864235D01*
X132954329Y-59855970D01*
X132932151Y-59845480D01*
X132911107Y-59832867D01*
X132891402Y-59818253D01*
X132873223Y-59801777D01*
X132856747Y-59783598D01*
X132842133Y-59763893D01*
X132829520Y-59742849D01*
X132819030Y-59720671D01*
X132810765Y-59697571D01*
X132804804Y-59673773D01*
X132801204Y-59649504D01*
X132800000Y-59625000D01*
X132800000Y-58375000D01*
X132801204Y-58350496D01*
X132804804Y-58326227D01*
X132810765Y-58302429D01*
X132819030Y-58279329D01*
X132829520Y-58257151D01*
X132842133Y-58236107D01*
X132856747Y-58216402D01*
X132873223Y-58198223D01*
X132891402Y-58181747D01*
X132911107Y-58167133D01*
X132932151Y-58154520D01*
X132954329Y-58144030D01*
X132977429Y-58135765D01*
X133001227Y-58129804D01*
X133025496Y-58126204D01*
X133050000Y-58125000D01*
X133975000Y-58125000D01*
X133999504Y-58126204D01*
X133999504Y-58126204D01*
G37*
D13*
X133512500Y-59000000D03*
D12*
G36*
X136974504Y-58126204D02*
G01*
X136998773Y-58129804D01*
X137022571Y-58135765D01*
X137045671Y-58144030D01*
X137067849Y-58154520D01*
X137088893Y-58167133D01*
X137108598Y-58181747D01*
X137126777Y-58198223D01*
X137143253Y-58216402D01*
X137157867Y-58236107D01*
X137170480Y-58257151D01*
X137180970Y-58279329D01*
X137189235Y-58302429D01*
X137195196Y-58326227D01*
X137198796Y-58350496D01*
X137200000Y-58375000D01*
X137200000Y-59625000D01*
X137198796Y-59649504D01*
X137195196Y-59673773D01*
X137189235Y-59697571D01*
X137180970Y-59720671D01*
X137170480Y-59742849D01*
X137157867Y-59763893D01*
X137143253Y-59783598D01*
X137126777Y-59801777D01*
X137108598Y-59818253D01*
X137088893Y-59832867D01*
X137067849Y-59845480D01*
X137045671Y-59855970D01*
X137022571Y-59864235D01*
X136998773Y-59870196D01*
X136974504Y-59873796D01*
X136950000Y-59875000D01*
X136025000Y-59875000D01*
X136000496Y-59873796D01*
X135976227Y-59870196D01*
X135952429Y-59864235D01*
X135929329Y-59855970D01*
X135907151Y-59845480D01*
X135886107Y-59832867D01*
X135866402Y-59818253D01*
X135848223Y-59801777D01*
X135831747Y-59783598D01*
X135817133Y-59763893D01*
X135804520Y-59742849D01*
X135794030Y-59720671D01*
X135785765Y-59697571D01*
X135779804Y-59673773D01*
X135776204Y-59649504D01*
X135775000Y-59625000D01*
X135775000Y-58375000D01*
X135776204Y-58350496D01*
X135779804Y-58326227D01*
X135785765Y-58302429D01*
X135794030Y-58279329D01*
X135804520Y-58257151D01*
X135817133Y-58236107D01*
X135831747Y-58216402D01*
X135848223Y-58198223D01*
X135866402Y-58181747D01*
X135886107Y-58167133D01*
X135907151Y-58154520D01*
X135929329Y-58144030D01*
X135952429Y-58135765D01*
X135976227Y-58129804D01*
X136000496Y-58126204D01*
X136025000Y-58125000D01*
X136950000Y-58125000D01*
X136974504Y-58126204D01*
X136974504Y-58126204D01*
G37*
D13*
X136487500Y-59000000D03*
D14*
X125350000Y-51000000D03*
X128650000Y-51000000D03*
X136650000Y-51000000D03*
X133350000Y-51000000D03*
D12*
G36*
X131480142Y-75388674D02*
G01*
X131503803Y-75392184D01*
X131527007Y-75397996D01*
X131549529Y-75406054D01*
X131571153Y-75416282D01*
X131591670Y-75428579D01*
X131610883Y-75442829D01*
X131628607Y-75458893D01*
X131644671Y-75476617D01*
X131658921Y-75495830D01*
X131671218Y-75516347D01*
X131681446Y-75537971D01*
X131689504Y-75560493D01*
X131695316Y-75583697D01*
X131698826Y-75607358D01*
X131700000Y-75631250D01*
X131700000Y-76118750D01*
X131698826Y-76142642D01*
X131695316Y-76166303D01*
X131689504Y-76189507D01*
X131681446Y-76212029D01*
X131671218Y-76233653D01*
X131658921Y-76254170D01*
X131644671Y-76273383D01*
X131628607Y-76291107D01*
X131610883Y-76307171D01*
X131591670Y-76321421D01*
X131571153Y-76333718D01*
X131549529Y-76343946D01*
X131527007Y-76352004D01*
X131503803Y-76357816D01*
X131480142Y-76361326D01*
X131456250Y-76362500D01*
X130543750Y-76362500D01*
X130519858Y-76361326D01*
X130496197Y-76357816D01*
X130472993Y-76352004D01*
X130450471Y-76343946D01*
X130428847Y-76333718D01*
X130408330Y-76321421D01*
X130389117Y-76307171D01*
X130371393Y-76291107D01*
X130355329Y-76273383D01*
X130341079Y-76254170D01*
X130328782Y-76233653D01*
X130318554Y-76212029D01*
X130310496Y-76189507D01*
X130304684Y-76166303D01*
X130301174Y-76142642D01*
X130300000Y-76118750D01*
X130300000Y-75631250D01*
X130301174Y-75607358D01*
X130304684Y-75583697D01*
X130310496Y-75560493D01*
X130318554Y-75537971D01*
X130328782Y-75516347D01*
X130341079Y-75495830D01*
X130355329Y-75476617D01*
X130371393Y-75458893D01*
X130389117Y-75442829D01*
X130408330Y-75428579D01*
X130428847Y-75416282D01*
X130450471Y-75406054D01*
X130472993Y-75397996D01*
X130496197Y-75392184D01*
X130519858Y-75388674D01*
X130543750Y-75387500D01*
X131456250Y-75387500D01*
X131480142Y-75388674D01*
X131480142Y-75388674D01*
G37*
D15*
X131000000Y-75875000D03*
D12*
G36*
X131480142Y-73513674D02*
G01*
X131503803Y-73517184D01*
X131527007Y-73522996D01*
X131549529Y-73531054D01*
X131571153Y-73541282D01*
X131591670Y-73553579D01*
X131610883Y-73567829D01*
X131628607Y-73583893D01*
X131644671Y-73601617D01*
X131658921Y-73620830D01*
X131671218Y-73641347D01*
X131681446Y-73662971D01*
X131689504Y-73685493D01*
X131695316Y-73708697D01*
X131698826Y-73732358D01*
X131700000Y-73756250D01*
X131700000Y-74243750D01*
X131698826Y-74267642D01*
X131695316Y-74291303D01*
X131689504Y-74314507D01*
X131681446Y-74337029D01*
X131671218Y-74358653D01*
X131658921Y-74379170D01*
X131644671Y-74398383D01*
X131628607Y-74416107D01*
X131610883Y-74432171D01*
X131591670Y-74446421D01*
X131571153Y-74458718D01*
X131549529Y-74468946D01*
X131527007Y-74477004D01*
X131503803Y-74482816D01*
X131480142Y-74486326D01*
X131456250Y-74487500D01*
X130543750Y-74487500D01*
X130519858Y-74486326D01*
X130496197Y-74482816D01*
X130472993Y-74477004D01*
X130450471Y-74468946D01*
X130428847Y-74458718D01*
X130408330Y-74446421D01*
X130389117Y-74432171D01*
X130371393Y-74416107D01*
X130355329Y-74398383D01*
X130341079Y-74379170D01*
X130328782Y-74358653D01*
X130318554Y-74337029D01*
X130310496Y-74314507D01*
X130304684Y-74291303D01*
X130301174Y-74267642D01*
X130300000Y-74243750D01*
X130300000Y-73756250D01*
X130301174Y-73732358D01*
X130304684Y-73708697D01*
X130310496Y-73685493D01*
X130318554Y-73662971D01*
X130328782Y-73641347D01*
X130341079Y-73620830D01*
X130355329Y-73601617D01*
X130371393Y-73583893D01*
X130389117Y-73567829D01*
X130408330Y-73553579D01*
X130428847Y-73541282D01*
X130450471Y-73531054D01*
X130472993Y-73522996D01*
X130496197Y-73517184D01*
X130519858Y-73513674D01*
X130543750Y-73512500D01*
X131456250Y-73512500D01*
X131480142Y-73513674D01*
X131480142Y-73513674D01*
G37*
D15*
X131000000Y-74000000D03*
M02*
